<?xml version="1.0" encoding="utf-8"?>
<!-- Generator: Adobe Illustrator 23.0.2, SVG Export Plug-In . SVG Version: 6.00 Build 0)  -->
<svg version="1.1" id="Layer_1" xmlns="http://www.w3.org/2000/svg" xmlns:xlink="http://www.w3.org/1999/xlink" x="0px" y="0px"
	 viewBox="0 0 256 256" style="enable-background:new 0 0 256 256;" xml:space="preserve">
<style type="text/css">
	.st0{fill:url(#SVGID_1_);}
	.st1{fill:#FFFFFF;}
	.st2{fill:#E6E6E6;}
	.st3{fill:#4D4D4D;}
</style>
<radialGradient id="SVGID_1_" cx="128" cy="128" r="224.4054" fx="3.3485" fy="131.7625" gradientTransform="matrix(1 0 0 0.9947 0 0.6809)" gradientUnits="userSpaceOnUse">
	<stop  offset="0" style="stop-color:#EF9B03"/>
	<stop  offset="0.3234" style="stop-color:#EF9017"/>
	<stop  offset="1" style="stop-color:#EF7B3D"/>
</radialGradient>
<path class="st0" d="M202.7,256H53.3C23.9,256,0,232.1,0,202.7V53.3C0,23.9,23.9,0,53.3,0h149.4C232.1,0,256,23.9,256,53.3v149.4
	C256,232.1,232.1,256,202.7,256z"/>
<g>
	<path class="st1" d="M26.7,152.6L90,89.2l77.7,77.7l-63.4,63.4l-13-13c0,0,10.9-30.3-1.4-45.2c-14-17-38.6-7.7-50.4-6.6
		c-11.9,1.1-1.5,0.5-1.5,0.5L26.7,152.6z"/>
	<path class="st1" d="M96,82.3l11.1-11.1c25.9,25.9,51.8,52.3,77.7,78.2L174.2,160C148.3,134.5,121.9,108.2,96,82.3z"/>
	<path class="st2" d="M191.8,149.8l43.5-43.5l-19.4-19.4C203.4,98.9,183,98.4,171,86c-12.5-12-13-32.4-0.9-44.9l-19.4-19.9
		l-43.5,43.5C107.1,64.7,191.8,149.8,191.8,149.8z"/>
	<path class="st3" d="M132.1,166c-1.4,0-2.3-0.5-3.2-1.4l-12.5-12.5c-1.9-1.9-1.9-4.6,0-6.5c1.9-1.9,4.6-1.9,6.5,0l12.5,12.5
		c1.9,1.9,1.9,4.6,0,6.5C134.4,165.5,133.1,166,132.1,166z M107.1,141c-1.4,0-2.3-0.5-3.2-1.4l-12.5-12.5c-1.9-1.9-1.9-4.6,0-6.5
		c1.9-1.9,4.6-1.9,6.5,0l12.5,12.5c1.9,1.9,1.9,4.6,0,6.5C109.5,140.5,108.1,141,107.1,141z"/>
	<path class="st3" d="M238.5,102.6l-19.4-19.4c-1.9-1.9-4.6-1.9-6.5,0c-10.6,10.2-27.8,9.7-37.9-0.9c-10.6-10.2-11.1-27.8-0.9-38.4
		c1.9-1.9,1.9-4.6,0-6.5L153.9,18l-0.9-0.5L152,17l-0.9-0.5h-1.4c-0.9,0-1.9,0.5-2.3,0.9L103.9,61l-87.4,87.9
		c-1.9,1.9-1.9,4.6,0,6.5l19.4,19.4c1.9,1.9,4.6,1.9,6.5,0c10.6-10.2,28.2-9.7,38.4,0.9c10.6,10.2,11.1,27.8,0.9,38.4
		c-1.9,1.9-1.9,4.6,0,6.5l19.4,19.4c0.9,0.9,2.3,1.4,3.2,1.4s2.3-0.5,3.2-1.4l68.5-68.5c0.9,0,1.4-0.5,1.9-0.9l19.4-19.4
		c0.5-0.5,0.5-0.9,0.9-1.4l40.2-40.2c0.9-0.9,1.4-2.3,1.4-3.7C239.9,104.9,239.4,103.5,238.5,102.6z M150.6,27.7L164,41.1
		c-10.6,14.3-9.3,35.2,3.7,47.6c13,13,33.3,14.3,48.1,4.2l13,13l-34.7,34.7l-78.2-77.7C115.9,62.8,150.6,27.7,150.6,27.7z
		 M107.1,71.2l77.7,78.2L174.2,160L96,82.3C96,82.3,107.1,71.2,107.1,71.2z M104.4,230.3l-13-13c10.6-14.3,9.3-35.2-3.7-47.6
		c-13-13-33.3-14.3-48.1-4.2l-13-13L72,107.2c0,0.5,0.5,0.9,0.9,1.4l6.5,6.5c0.9,0.9,2.3,1.4,3.2,1.4s2.3-0.5,3.2-1.4
		c1.9-1.9,1.9-4.6,0-6.5l-6.5-6.5c-0.5-0.5-0.9-0.5-1.4-0.9l12-12l77.7,77.7l-12,12c0-0.9-0.5-1.4-0.9-1.9l-6.5-6.5
		c-1.9-1.9-4.6-1.9-6.5,0c-1.9,1.9-1.9,4.6,0,6.5l6.5,6.5c0.5,0.5,1.4,0.9,1.9,0.9C150.2,184.5,104.4,230.3,104.4,230.3z"/>
</g>
</svg>
